<svg width="230" height="275" viewBox="0 0 230 275" xmlns="http://www.w3.org/2000/svg"><title>code</title><g fill="none" fill-rule="evenodd"><path d="M1.954 0C.874 0 0 .883 0 1.962V16h230V1.962C230 .878 229.12 0 228.046 0H1.954zm0 0" fill="#D4D4D4"/><path d="M8 11c1.105 0 2-.895 2-2s-.895-2-2-2-2 .895-2 2 .895 2 2 2zm8 0c1.105 0 2-.895 2-2s-.895-2-2-2-2 .895-2 2 .895 2 2 2zm8 0c1.105 0 2-.895 2-2s-.895-2-2-2-2 .895-2 2 .895 2 2 2zm0 0" fill="#F3F0F0"/><path d="M0 16v259h230V16H0zm0 0" fill="#4A4A4A"/><path d="M31.996 31C30.34 31 29 32.347 29 34c0 1.657 1.337 3 2.996 3h54.008C87.66 37 89 35.653 89 34c0-1.657-1.337-3-2.996-3H31.996zm0 0" fill="#A8E7D6"/><path d="M31.995 45C30.34 45 29 46.347 29 48c0 1.657 1.336 3 2.995 3h71.01c1.654 0 2.995-1.347 2.995-3 0-1.657-1.336-3-2.995-3h-71.01zm0 0" fill="#F9EA89"/><path d="M61.995 59C60.34 59 59 60.347 59 62c0 1.657 1.336 3 2.995 3h71.01c1.654 0 2.995-1.347 2.995-3 0-1.657-1.336-3-2.995-3h-71.01zm0 14C60.34 73 59 74.347 59 76c0 1.657 1.336 3 2.995 3h71.01c1.654 0 2.995-1.347 2.995-3 0-1.657-1.336-3-2.995-3h-71.01zm0 0" fill="#EC9E92"/><path d="M37.993 87C36.34 87 35 88.347 35 90c0 1.657 1.34 3 2.993 3h21.014C60.66 93 62 91.653 62 90c0-1.657-1.34-3-2.993-3H37.993zm0 14C36.34 101 35 102.347 35 104c0 1.657 1.34 3 2.993 3h21.014c1.653 0 2.993-1.347 2.993-3 0-1.657-1.34-3-2.993-3H37.993zm0 0" fill="#BA9FE5"/><path d="M38 115c-1.656 0-3 1.347-3 3 0 1.657 1.346 3 3 3h102c1.656 0 3-1.347 3-3 0-1.657-1.346-3-3-3H38zm0 0" fill="#A8E7D6"/><path d="M38.01 129c-1.663 0-3.01 1.347-3.01 3 0 1.657 1.334 3 3.01 3h68.98c1.663 0 3.01-1.347 3.01-3 0-1.657-1.334-3-3.01-3H38.01zm0 0" fill="#F9EA89"/><path d="M48.993 143C47.34 143 46 144.347 46 146c0 1.657 1.348 3 2.993 3h107.014c1.653 0 2.993-1.347 2.993-3 0-1.657-1.348-3-2.993-3H48.993zm0 0" fill="#EC9E92"/><path d="M58.007 157c-1.66 0-3.007 1.347-3.007 3 0 1.657 1.342 3 3.007 3h33.986c1.66 0 3.007-1.347 3.007-3 0-1.657-1.342-3-3.007-3H58.007zm0 0" fill="#BA9FE5"/><path d="M50.996 171C49.34 171 48 172.347 48 174c0 1.657 1.348 3 2.996 3h114.008c1.655 0 2.996-1.347 2.996-3 0-1.657-1.348-3-2.996-3H50.996zm0 0" fill="#EC9E92"/><path d="M49.993 185C48.34 185 47 186.347 47 188c0 1.657 1.338 3 2.993 3h94.014c1.653 0 2.993-1.347 2.993-3 0-1.657-1.338-3-2.993-3H49.993zm0 0" fill="#A8E7D6"/><path d="M37.996 199C36.34 199 35 200.347 35 202c0 1.657 1.337 3 2.996 3h54.008c1.655 0 2.996-1.347 2.996-3 0-1.657-1.337-3-2.996-3H37.996zm0 0" fill="#F9EA89"/><path d="M45.998 213c-1.656 0-2.998 1.347-2.998 3 0 1.657 1.35 3 2.998 3h80.004c1.656 0 2.998-1.347 2.998-3 0-1.657-1.35-3-2.998-3H45.998zm0 0" fill="#A8E7D6"/><path d="M46.007 227c-1.66 0-3.007 1.347-3.007 3 0 1.657 1.342 3 3.007 3h33.986c1.66 0 3.007-1.347 3.007-3 0-1.657-1.342-3-3.007-3H46.007zm0 0" fill="#BA9FE5"/><path d="M32.007 241c-1.66 0-3.007 1.347-3.007 3 0 1.657 1.342 3 3.007 3h33.986c1.66 0 3.007-1.347 3.007-3 0-1.657-1.342-3-3.007-3H32.007zm0 0" fill="#F9EA89"/><path d="M32.007 255c-1.66 0-3.007 1.347-3.007 3 0 1.657 1.342 3 3.007 3h33.986c1.66 0 3.007-1.347 3.007-3 0-1.657-1.342-3-3.007-3H32.007zm0 0" fill="#A8E7D6"/></g></svg>