<svg width="32" height="22" viewBox="0 0 32 22" xmlns="http://www.w3.org/2000/svg"><title>buffalo-red</title><desc>Created with Sketch.</desc><path d="M5.99 9.923l-.036-.066c-.312-.58-.424-1.063-.424-2.43 0-1.96 1.263-3.643 2.72-3.643.536 0 .97-.002 1.748-.007.677-.005.872-.006 1.193-.007.73-.002 1.34.002 1.99.014 1.24.023 1.99-.29 3-1.06.058-.038.3-.23.37-.282 1.02-.776 1.82-1.087 3.37-1.087 2.277 0 3.505.95 4.156 2.664.148.38.26.8.36 1.28.05.26.186 1.03.2 1.1.156.804.286 1.116.893 1.116.305 0 .54-.08.78-.24.02-.014.213-.15.265-.18.25-.154.618-.24 1.34-.24 1.627 0 2.773 1.664 2.773 4.92 0 1.58-.316 2.6-.825 3.18-.302.344-.65.492-.863.492-.617 0-.787.322-1.368 1.782-.035.09-.07.18-.116.293-.35.902-.342.88-.445 1.112-.06.138-.11.237-.144.29.1-.094.213-.157.385-.157.267 0 .344.078.4.176-.03-.05-.074-.15-.13-.284-.09-.23-.105-.272-.393-1.11l-.126-.36c-.502-1.43-.654-1.743-1.28-1.743h-2.73v5.61l.64-.668h-2.11l.64.666V19.15c0-.32-.34-1.053-.833-1.956-.7-1.28-1.02-1.75-1.555-1.75-.105 0-2.713.02-2.96.02-.32.006-.62.008-.91.01-1.44.01-2.52.016-3.18.016-.61 0-1.115-.253-1.67-.76-.146-.132-.588-.575-.646-.63-.33-.307-.57-.46-.91-.46-.482 0-.765.286-1.013.776.01-.02-.395.885-.55 1.144-.14.233-.293.43-.473.6-.206.19-.456.367-.74.526-.338.19-.705.343-1.073.463-.22.07-.386.112-.473.13l-.513.11v3.664l.64-.667H3.07l.64.668V16.4c0 .165-.06.276-.126.34.016-.017.893-.473 1.262-.733 1.074-.756 1.7-1.836 1.7-3.407 0-1.342-.15-1.933-.554-2.682zm-1.863 4.985c-.238.168-1.23.684-1.403.846-.178.168-.296.38-.296.65v5.328H5.99v-3.787l-.513.654c.128-.03.338-.09.603-.17.44-.15.88-.33 1.295-.56.37-.21.703-.44.99-.71.278-.26.508-.56.71-.89.2-.34.635-1.31.594-1.23.04-.085.07-.13.08-.14-.04.04-.12.073-.2.073-.07 0-.11-.01-.12-.018.033.02.087.065.162.135.033.03.485.484.657.64.77.7 1.545 1.09 2.52 1.09.662 0 1.743-.003 3.19-.013l.91-.006 2.95-.02c-.13 0-.218-.036-.285-.083.04.045.1.13.178.24.156.23.35.55.55.92.19.34.37.7.505.99.064.14.115.254.15.34.013.3.013.3.013.9v1.64h3.387v-5.61l-.64.666h2.09c-.12 0-.215-.04-.29-.09-.037-.03-.004.03.037.113.09.186.196.457.333.844l.12.35c.3.87.314.91.42 1.17.287.718.41.93.91.93.48 0 .61-.202.92-.905.067-.15.14-.33.23-.556l.12-.307.12-.31.113-.287c.163-.41.286-.694.39-.893.05-.093.09-.16.114-.186-.05.06-.135.12-.32.12 1.565 0 2.97-1.598 2.97-5.006 0-3.916-1.61-6.255-4.054-6.255-.933 0-1.52.14-1.984.423-.1.06-.32.216-.31.21-.044.03-.05.03-.09.03.256 0 .384.133.43.246-.015-.04-.04-.136-.07-.292-.01-.05-.145-.83-.204-1.12-.11-.544-.243-1.03-.42-1.495-.835-2.2-2.52-3.506-5.342-3.506-1.84 0-2.896.41-4.122 1.344l-.37.285c-.8.61-1.29.817-2.212.8-.656-.013-1.28-.017-2.014-.014-.323 0-.52 0-1.197.005-.776.01-1.21.01-1.74.01-2.24 0-4 2.34-4 4.98 0 1.59.163 2.297.59 3.085.02.035.02.035.034.07.295.55.387.912.387 2.026 0 1.1-.395 1.78-1.136 2.304zm-1.54-8.72c-.5.798-.906 1.648-1.23 2.498-.196.512-.322.914-.384 1.154l.198-.33c-.15.14-.36.373-.57.692-.36.55-.58 1.163-.57 1.827.01 1.27.84 2.94 1.56 2.98.776.05 1.73-1.77 1.73-3.04 0-.67-.25-1.277-.66-1.82-.232-.314-.47-.54-.64-.677l-.772 1.062c.09.07.25.225.408.435.248.33.39.67.39.995 0 .38-.144.854-.377 1.296-.098.18-.2.34-.285.447-.03.038-.052.06-.06.067.013-.01.03-.022.06-.037.077-.04.168-.066.29-.06.153.01.225.054.283.107-.007-.006-.027-.028-.053-.06-.078-.1-.168-.25-.25-.418-.21-.424-.34-.89-.345-1.297-.003-.36.126-.725.35-1.07.14-.21.277-.362.354-.432l.147-.135.05-.197.08-.266c.07-.225.157-.475.26-.745.296-.776.666-1.55 1.115-2.266 1.287-2.057 2.93-3.23 4.98-3.157l.043-1.335C6.118 2.32 4.1 3.76 2.594 6.17zm26.71-.925l-.233-1.312c-1.967.38-2.786 4.27-.94 4.79l.33-1.29c-.34-.09.068-2.03.842-2.18z"/></svg>