<svg width="34" height="23" viewBox="0 0 34 23" xmlns="http://www.w3.org/2000/svg"><title>buffalo-blue</title><desc>Created with Sketch.</desc><path d="M7.13 10.84c-.02-.032-.02-.032-.036-.064-.3-.554-.404-1.01-.404-2.35 0-1.876 1.2-3.475 2.56-3.475H11l1.19-.004c.727-.003 1.34 0 1.986.013 1.28.025 2.062-.3 3.095-1.09.06-.04.3-.23.37-.284 1-.757 1.77-1.056 3.28-1.056 2.208 0 3.38.905 4.008 2.557.144.38.255.787.35 1.257.053.26.187 1.03.2 1.104.05.255.096.434.163.595.157.374.428.656.888.656.338 0 .6-.09.866-.267.026-.02.214-.15.26-.18.225-.136.565-.216 1.26-.216 1.525 0 2.613 1.582 2.613 4.755 0 2.605-.79 3.503-1.53 3.503-.728 0-.88.294-1.516 1.886l-.116.296c-.35.9-.34.88-.443 1.107-.057.13-.104.225-.132.27.086-.134.186-.23.52-.23.224 0 .38.085.49.198.03.03.043.047.047.055-.023-.04-.065-.132-.116-.26-.095-.228-.11-.27-.395-1.1l-.128-.364c-.153-.436-.276-.75-.397-1-.275-.564-.5-.85-1.036-.85H23.89v5.774l.8-.833h-2.11l.8.834v-1.91c0-.366-.34-1.096-.855-2.04-.76-1.387-1.064-1.83-1.694-1.83l-2.96.023-.91.006c-1.44.01-2.52.013-3.18.013-.57 0-1.04-.236-1.57-.72-.14-.127-.58-.57-.64-.627-.35-.335-.62-.505-1.01-.505-.56 0-.883.327-1.156.867.006-.014-.396.883-.544 1.13-.13.224-.275.41-.443.566-.196.182-.436.35-.71.504-.33.187-.687.337-1.045.45-.213.07-.375.11-.457.13l-.64.138v3.802l.8-.836H4.07l.8.833v-4.66c0 .22-.083.37-.18.46-.003.004.86-.445 1.246-.716 1.115-.783 1.77-1.912 1.77-3.542 0-1.37-.156-1.99-.575-2.766zm-2.093 4.93c-.22.157-1.228.68-1.42.86-.21.197-.35.45-.35.775v5.493h3.885v-3.953l-.64.817c.5-.105 1.214-.337 1.94-.743.38-.22.725-.46 1.023-.74.29-.27.528-.58.737-.93.208-.35.646-1.324.6-1.234.035-.07.057-.103.052-.098-.066.066-.18.12-.31.12-.102 0-.164-.023-.196-.043.024.017.07.056.138.12.032.03.485.485.66.645.796.725 1.607 1.132 2.625 1.132.67 0 1.75-.006 3.19-.016l.91-.004 2.95-.02c-.25 0-.33-.058-.4-.136.04.04.097.115.17.22.152.22.344.54.542.904.186.338.366.692.5.98.06.134.11.247.14.328l.024.067c-.01-.038-.02-.078-.02-.16v2.74h3.708v-5.78l-.8.833h2.087c-.253 0-.386-.096-.47-.2.01.01.037.058.07.133.088.18.19.446.327.828l.12.348c.302.88.314.914.42 1.183.082.202.155.36.232.49.196.336.4.542.825.542.414 0 .614-.194.82-.518.08-.128.16-.285.25-.485.067-.156.14-.336.232-.566l.12-.305.12-.31.11-.285c.16-.41.284-.69.385-.88.043-.086.08-.14.093-.16-.077.092-.2.177-.442.177 1.658 0 3.13-1.675 3.13-5.17 0-4-1.666-6.42-4.212-6.42-.96 0-1.573.143-2.064.44-.105.064-.33.223-.313.21.33.008.5.187.57.353-.01-.024-.03-.112-.06-.257-.01-.046-.147-.83-.207-1.12-.112-.555-.246-1.047-.427-1.52C25.54 2.2 23.8.852 20.91.852c-1.876 0-2.965.423-4.217 1.375l-.37.283c-.775.593-1.24.787-2.12.77-.66-.012-1.283-.016-2.02-.014-.322 0-.518 0-1.197.003-.775.004-1.208.006-1.74.006-2.34 0-4.16 2.424-4.16 5.144 0 1.616.17 2.35.61 3.166l.035.066c.29.523.37.86.37 1.945 0 1.04-.36 1.673-1.06 2.166zM3.453 7.097c-.505.808-.917 1.668-1.245 2.527-.198.52-.326.927-.39 1.172l.248-.41c-.164.147-.383.39-.6.722-.377.576-.607 1.22-.602 1.923.01 1.35.88 3.1 1.71 3.16.894.06 1.9-1.85 1.9-3.21 0-.71-.265-1.35-.694-1.92-.245-.32-.49-.56-.67-.702l-.968 1.33c.08.063.23.207.38.405.226.3.353.61.353.89 0 .35-.135.798-.356 1.217-.09.17-.19.32-.27.42.07-.09.1-.114.42-.093.27.02.3.043.344.107-.07-.09-.154-.23-.234-.39-.2-.4-.322-.84-.325-1.22 0-.32.118-.65.326-.97.13-.2.26-.34.33-.4l.183-.167.063-.242c.01-.04.035-.13.075-.257.068-.22.153-.468.255-.735.29-.76.654-1.524 1.1-2.23C6.05 6 7.64 4.86 9.625 4.933l.055-1.668c-2.63-.1-4.7 1.378-6.23 3.834zM29.57 8.26c-.045-.18-.04-.45.02-.735.127-.608.444-1.043.735-1.1l-.29-1.638c-2.116.406-2.987 4.54-.953 5.11l.415-1.61c.072.02.09.042.072-.027z"/></svg>