<svg height="96" viewBox="0 0 96 96" width="96" xmlns="http://www.w3.org/2000/svg"><path fill="#ddd" d="M88 48c-2.21 0-4 1.79-4 4v28c0 2.21-1.79 4-4 4H16c-2.21 0-4-1.79-4-4V16c0-2.21 1.79-4 4-4h28c2.21 0 4-1.79 4-4s-1.79-4-4-4H16C9.373 4 4 9.373 4 16v64c0 6.627 5.373 12 12 12h64c6.627 0 12-5.373 12-12V52c0-2.21-1.79-4-4-4z"/><path fill="#95a5a6" d="M91.996 7.958c-.003-.25-.026-.498-.075-.742-.02-.112-.06-.216-.09-.325-.04-.14-.07-.28-.13-.42-.05-.12-.12-.23-.18-.34-.06-.114-.112-.233-.186-.343-.12-.18-.26-.342-.407-.5-.032-.034-.055-.074-.09-.107-.03-.03-.066-.05-.1-.08-.16-.15-.325-.294-.51-.417-.11-.072-.225-.123-.34-.184-.114-.064-.226-.135-.35-.186-.14-.06-.28-.09-.425-.13-.106-.03-.21-.074-.32-.096-.257-.05-.52-.08-.783-.08H64c-2.21 0-4 1.79-4 4s1.79 4 4 4h14.343l-32.77 32.77c-1.562 1.562-1.562 4.095 0 5.656 1.562 1.56 4.095 1.56 5.656 0L84 17.656V32c0 2.21 1.79 4 4 4s4-1.79 4-4V8c0-.014-.004-.027-.004-.042z"/></svg>