<svg width="1440" height="400" viewBox="0 0 1440 400" xmlns="http://www.w3.org/2000/svg"><title>Slice 1</title><g fill="none" fill-rule="evenodd"><path d="M0 0v400h1440V0H0z" fill="#FFDBCC"/><path d="M729 222c-16.57 0-30-13.43-30-30v-12.2h-9.102c-4.92 0-8.898-3.985-8.898-8.9 0-4.916 3.984-8.9 8.898-8.9H699v-15.606c0-4.632 3.76-8.394 8.4-8.394 4.63 0 8.4 3.758 8.4 8.394V162h11.302c.225 0 .448.008.67.025.407-.017.816-.025 1.228-.025 16.57 0 30 13.43 30 30s-13.43 30-30 30zm.317-17.183c7.456 0 13.5-5.597 13.5-12.5 0-6.904-6.044-12.5-13.5-12.5h-13.5v12.5c0 6.903 6.044 12.5 13.5 12.5z" fill="#FF4B00"/><path d="M699 162v17.8h16.8V162H699z" fill="#AF0000"/><path d="M0 364v36h1440v-36H0z" fill="#FF4B00"/></g></svg>