<svg width="1440" height="400" viewBox="0 0 1440 400" xmlns="http://www.w3.org/2000/svg"><title>Slice 1</title><g fill="none" fill-rule="evenodd"><path d="M0 0v400h1440V0H0z" fill="#83DCCD"/><path d="M703 267.5c36.45 0 66-29.55 66-66s-29.55-66-66-66-66 29.55-66 66 29.55 66 66 66zm-1.5 30c-53.848 0-97.5-43.652-97.5-97.5s43.652-97.5 97.5-97.5c.5 0 1 .004 1.5.01v-.01h110.005c4.415 0 7.995 3.585 7.995 8.008v4.992c-11.598 0-21 9.402-21 21s9.402 21 21 21v131.992c0 4.436-3.58 8.008-7.995 8.008H703v-.01c-.5.006-1 .01-1.5.01z" fill="#2E2929"/><path d="M698.286 203.247l20.5 35.506 6.928-4-20.5-35.506-6.928 4z" fill="#CF3D3D"/><path d="M707 201.5v-56h-8v56h8z" fill="#FFFEF6"/><path d="M702.5 210.5c4.694 0 8.5-3.806 8.5-8.5s-3.806-8.5-8.5-8.5-8.5 3.806-8.5 8.5 3.806 8.5 8.5 8.5z" fill="#D4D4D4"/><path d="M820.5 151.5c8.56 0 15.5-6.94 15.5-15.5 0-8.56-6.94-15.5-15.5-15.5-8.56 0-15.5 6.94-15.5 15.5 0 8.56 6.94 15.5 15.5 15.5z" fill="#CF3D3D"/></g></svg>