<svg width="128" height="128" viewBox="0 0 128 128" xmlns="http://www.w3.org/2000/svg"><title>logo-color</title><desc>Created with Sketch.</desc><g fill="none" fill-rule="evenodd"><path d="M54.647 26.575L36.654 117.07h54.828L54.647 26.576" fill="#FF4040"/><path d="M54.647 26.575L36.654 117.07h54.828L54.647 26.576" stroke="#38345C" stroke-width="3.943" stroke-linecap="round" stroke-linejoin="round"/><path d="M54.854 27.268l64.032 82.856-27.24 6.947-36.77-89.83-.022.03z" fill="#EC7863"/><path d="M54.854 27.268l64.032 82.856-27.24 6.947-36.77-89.83-.022.03z" stroke="#38345C" stroke-width="3.943" stroke-linecap="round" stroke-linejoin="round"/><path d="M54.875 27.402l-18.22 89.67L14.123 98.28l40.73-71.013.022.134z" fill="#E0594A"/><path d="M54.875 27.402l-18.22 89.67L14.123 98.28l40.73-71.013.022.134z" stroke="#38345C" stroke-width="3.943" stroke-linecap="round" stroke-linejoin="round"/><path d="M73.48 117.07L58.158 85.525l-4.16 31.547H73.48z" fill="#38345C"/><path d="M73.48 117.07L58.158 85.525l-4.16 31.547H73.48z" stroke="#38345C" stroke-width="2.629" stroke-linecap="round" stroke-linejoin="round"/><path d="M59.205 6.207l-4.233 21.03 4.233-21.03zm-10.09 4.272l5.76 16.75-5.76-16.76z" stroke="#38345C" stroke-width="3.943" stroke-linecap="round" stroke-linejoin="round"/></g></svg>