<svg width="800" height="600" viewBox="0 0 800 600" xmlns="http://www.w3.org/2000/svg"><title>nomadpm-logos</title><desc>Created with Sketch.</desc><g fill="none" fill-rule="evenodd"><path fill="#E6988A" d="M0 0h800v300H0z"/><path d="M382.716 103.54l-22.45 112.34h68.41l-45.96-112.34" fill="#FF4040"/><path d="M382.716 103.54l-22.45 112.34h68.41l-45.96-112.34" stroke="#38345C" stroke-width="3.943" stroke-linecap="round" stroke-linejoin="round"/><path d="M382.974 104.402l79.893 102.856-33.987 8.623L383 104.37l-.026.038z" fill="#EC7863"/><path d="M382.974 104.402l79.893 102.856-33.987 8.623L383 104.37l-.026.038z" stroke="#38345C" stroke-width="3.943" stroke-linecap="round" stroke-linejoin="round"/><path d="M383 104.568L360.265 215.88l-28.11-23.327 50.82-88.15.025.165z" fill="#E0594A"/><path d="M383 104.568L360.265 215.88l-28.11-23.327 50.82-88.15.025.165z" stroke="#38345C" stroke-width="3.943" stroke-linecap="round" stroke-linejoin="round"/><path d="M406.213 215.88l-19.117-39.16-5.19 39.16h24.307z" fill="#38345C"/><path d="M406.213 215.88l-19.117-39.16-5.19 39.16h24.307z" stroke="#38345C" stroke-width="2.629" stroke-linecap="round" stroke-linejoin="round"/><path d="M388.403 78.257l-5.282 26.107 5.29-26.107zm-12.59 5.303L383 104.364l-7.188-20.804z" stroke="#38345C" stroke-width="3.943" stroke-linecap="round" stroke-linejoin="round"/><path fill="#38345C" d="M0 300h400v300H0z"/><path d="M191.374 428.565l-11.225 56.01h34.2l-22.98-56.01zm.13.442l39.945 51.283-17 4.3-22.94-55.6-.016.017zm.012.083l-11.367 55.5-14.06-11.632 25.41-43.95.01.082zm11.606 55.486l-9.558-19.525-2.594 19.53h12.152z" stroke="#fff" stroke-width="2.441" stroke-linecap="round" stroke-linejoin="round"/><path d="M194.217 415.972l-2.64 13.017 2.64-13.02z" fill="#fff"/><path d="M194.217 415.972l-2.64 13.017 2.64-13.02z" stroke="#fff" stroke-width="2.441" stroke-linecap="round" stroke-linejoin="round"/><path d="M187.922 418.616l3.594 10.373-3.594-10.38z" fill="#fff"/><path d="M187.922 418.616l3.594 10.373-3.594-10.38z" stroke="#fff" stroke-width="2.441" stroke-linecap="round" stroke-linejoin="round"/><path fill="#fff" d="M400 300h400v300H400z"/><path d="M591.374 428.565l-11.225 56.01h34.2l-22.98-56.01zm.13.442l39.945 51.283-17 4.3-22.94-55.6-.016.017zm.012.083l-11.367 55.5-14.06-11.632 25.41-43.95.01.082zm11.606 55.486l-9.558-19.525-2.594 19.53h12.152z" stroke="#000" stroke-width="2.441" stroke-linecap="round" stroke-linejoin="round"/><path d="M594.217 415.972l-2.64 13.017 2.64-13.02z" fill="#000"/><path d="M594.217 415.972l-2.64 13.017 2.64-13.02z" stroke="#000" stroke-width="2.441" stroke-linecap="round" stroke-linejoin="round"/><path d="M587.922 418.616l3.594 10.373-3.594-10.38z" fill="#000"/><path d="M587.922 418.616l3.594 10.373-3.594-10.38z" stroke="#000" stroke-width="2.441" stroke-linecap="round" stroke-linejoin="round"/></g></svg>