<svg width="1440" height="400" viewBox="0 0 1440 400" xmlns="http://www.w3.org/2000/svg"><title>Slice 1</title><g fill="none" fill-rule="evenodd"><path d="M0 0v400h1440V0H0z" fill="#C84834"/><path d="M719.624 226.24c.208.21.54.215.752 0l36.38-37.104 3.672-3.745c.507-.51 1.332-.52 1.837 0l7.36 7.508c.5.51.5 1.354-.008 1.873l-3.672 3.746-45.56 46.466c-.213.217-.55.22-.768 0l-45.56-46.465-3.674-3.747c-.507-.517-.512-1.358-.007-1.873l7.36-7.508c.502-.513 1.327-.51 1.836.007l3.673 3.746 36.38 37.1z" fill="#E7C4BA"/></g></svg>