<svg width="1440" height="400" viewBox="0 0 1440 400" xmlns="http://www.w3.org/2000/svg"><title>Slice 1</title><g fill="none" fill-rule="evenodd"><path fill="#383838" d="M0 0h1440v400H0z"/><g fill="#fff"><path d="M680.357 141.258h14.738l-34.706 69.34-14.93-28.084-14.02 28.083-36.44-69.34h16.3l20.694 39.975 6.415-12.348-14.47-27.626h16.295l20.702 39.974 19.41-39.974m12.656 34.124c0-19.58 15.753-35.313 35.263-35.313 19.595 0 35.35 15.73 35.35 35.31 0 19.39-15.754 35.21-35.257 35.21-19.603 0-35.357-15.83-35.357-35.217zm14.562 0c0 12.074 9.07 21.585 20.792 21.585 11.538 0 20.702-9.51 20.702-21.585 0-12.173-9.256-21.867-20.795-21.867-11.63 0-20.7 9.694-20.7 21.867zm28.39 0c0 4.02-3.016 7.498-7.598 7.498-4.49 0-7.606-3.478-7.606-7.498 0-4.3 3.116-7.596 7.606-7.596 4.482 0 7.6 3.295 7.6 7.596zm105.272 3.928c-2.008 17.474-17.036 31.287-35.164 31.287-19.51 0-35.08-15.735-35.08-35.215 0-19.487 15.57-35.313 34.99-35.313 12.73 0 23.99 6.58 30.123 16.55l-11.08 7.862c-4.94-7.315-11.905-10.884-18.953-10.884-11.446 0-20.52 9.694-20.52 21.775 0 11.975 9.074 21.585 20.52 21.585 10.256 0 18.87-7.412 20.794-17.655h14.37"/><path d="M845.467 259.746v-15.254H694.692l13.323 15.254h137.452zm-135.16-.07l-34.718-53.39-14.57 24.297-14.96-24.296-35.03 53.39h16.04l18.99-27.985 7.38 10.683-11.18 17.302h15.42l17.9-27.985 19.53 27.985h15.19zm135.16-23.574v-15.255h-149.06l9.32 15.255h139.74z"/></g></g></svg>