<svg width="1440" height="400" viewBox="0 0 1440 400" xmlns="http://www.w3.org/2000/svg"><title>Slice 1</title><g fill="none" fill-rule="evenodd"><path d="M0 400h1440V0H0v400z" fill="#0091DD"/><path d="M594 236.5c0-21.82 17.685-39.5 39.5-39.5h1.502c.274-30.422 25.464-55 56.498-55 5.995 0 11.772.917 17.193 2.616 10.12-9.06 23.78-14.616 38.807-14.616 29.604 0 53.89 21.56 56.303 49 23.333.187 42.197 21.83 42.197 48.5 0 26.786-19.028 48.5-42.5 48.5-.66 0-1.317-.017-1.97-.05-.673.033-1.35.05-2.03.05h-166c-21.806 0-39.5-17.685-39.5-39.5z" fill="#B5C6DF"/><path d="M594 232.5c0-21.82 17.685-39.5 39.5-39.5h1.502c.274-30.422 25.464-55 56.498-55 5.995 0 11.772.917 17.193 2.616 10.12-9.06 23.78-14.616 38.807-14.616 29.604 0 53.89 21.56 56.303 49 23.333.187 42.197 21.83 42.197 48.5 0 26.786-19.028 48.5-42.5 48.5-.66 0-1.317-.017-1.97-.05-.673.033-1.35.05-2.03.05h-166c-21.806 0-39.5-17.685-39.5-39.5z" fill="#FCFCFC"/><path d="M594 231.5c0-21.82 17.685-39.5 39.5-39.5h1.502c.274-30.422 25.464-55 56.498-55 5.995 0 11.772.917 17.193 2.616 10.12-9.06 23.78-14.616 38.807-14.616 29.604 0 53.89 21.56 56.303 49 23.333.187 42.197 21.83 42.197 48.5 0 26.786-19.028 48.5-42.5 48.5-.66 0-1.317-.017-1.97-.05-.673.033-1.35.05-2.03.05h-166c-21.806 0-39.5-17.685-39.5-39.5z" fill="#F4F8FC"/></g></svg>