<svg width="1442" height="432" viewBox="0 0 1442 432" xmlns="http://www.w3.org/2000/svg" xmlns:xlink="http://www.w3.org/1999/xlink"><title>Plane Header</title><desc>Created with Sketch.</desc><defs><filter x="-50%" y="-50%" width="200%" height="200%" filterUnits="objectBoundingBox" id="a"><feGaussianBlur stdDeviation="0 0" in="SourceGraphic" result="blur"/></filter><path d="M994.302 183.724c.788-.23 1.408-.144 1.86.257.45.41.562.95.337 1.64 0 .23-.31 1.66-.93 4.3-.62 2.635-1.38 5.9-2.29 9.796-.9 3.895-1.86 8.105-2.875 12.63-1.015 4.526-1.97 8.737-2.874 12.63-.902 3.896-1.662 7.22-2.282 9.968-.62 2.75-.986 4.24-1.1 4.47-.224.8-.647 1.345-1.267 1.632-.617.286-1.265.258-1.942-.086-.336-.23-1.603-.945-3.8-2.148-2.196-1.203-4.59-2.492-7.183-3.867-2.93-1.605-6.255-3.438-9.973-5.5l-2.536-1.375 1.86-2.233c6.084-6.644 11.55-12.66 16.395-18.043 2.03-2.293 4.058-4.527 6.087-6.703 2.03-2.175 3.83-4.123 5.41-5.84 1.58-1.72 2.844-3.12 3.802-4.21.957-1.09 1.492-1.69 1.605-1.805.227-.23.2-.486-.083-.772-.283-.286-.537-.314-.76-.085-.115.115-.847.688-2.2 1.72-1.35 1.03-3.127 2.35-5.324 3.952-2.197 1.604-4.704 3.437-7.522 5.5-2.814 2.06-5.63 4.18-8.45 6.357-6.76 5.04-14.423 10.712-22.99 17.014l-9.464-3.78-16.06-6.53c-.787-.23-1.126-.572-1.013-1.03.114-.46.452-.8 1.015-1.03.224-.116 2.196-.83 5.915-2.15 3.72-1.317 8.284-2.95 13.693-4.898l17.664-6.36 17.662-6.355c5.41-1.95 9.97-3.58 13.69-4.9 3.72-1.32 5.69-2.033 5.916-2.15 0 0-.223.117 0 0zm-49.19 45.025l13.522 7.04c-2.028 1.95-3.888 3.662-5.578 5.15-1.465 1.26-2.845 2.49-4.14 3.695-1.297 1.203-2.058 1.92-2.283 2.15-1.015.8-1.522.63-1.522-.518 0 0 0 1.145 0 0v-17.52z" id="b"/><linearGradient x1="0%" y1="50%" x2="99.051%" y2="42.582%" id="c"><stop stop-color="#fff" stop-opacity=".2" offset="0%"/><stop stop-color="#fff" stop-opacity=".7" offset="100%"/></linearGradient><filter x="-50%" y="-50%" width="200%" height="200%" filterUnits="objectBoundingBox" id="d"><feGaussianBlur stdDeviation="2 0" in="SourceGraphic" result="blur"/></filter></defs><g fill="none" fill-rule="evenodd"><path fill="#CEE6F4" d="M2 0h1440v432H2z"/><g filter="url(#a)" transform="translate(2)"><use fill="#fff" xlink:href="#b"/><use xlink:href="#b"/></g><path d="M928.388 256.995c-.267.224-.81.67-1.617 1.322-1.35 1.095-2.96 2.367-4.82 3.802-5.31 4.1-11.53 8.68-18.6 13.61-20.21 14.11-43.16 28.22-68.4 41.39-72.07 37.6-148.04 60.15-224.39 60.15-77.85 0-131.46-22.453-164.85-61.28-23.275-27.06-34.492-59.35-36.75-88.7-3.054-39.714 22.43-71.78 63.37-71.78 38.384 0 51.84 23.242 51.84 72 0 25.463-24.453 57.12-66.1 72.176-57.91 20.94-142.808 11.375-255.315-37.38-14.742-6.387-30.67-9.503-47.594-9.64-33.366-.266-68.955 10.847-104.475 29.51-12.25 6.437-23.616 13.332-33.815 20.23-3.576 2.415-6.75 4.66-9.488 6.68-.963.705-1.8 1.335-2.515 1.88-.432.33-.728.56-.885.684-1.25.987-1.46 2.798-.478 4.047.985 1.25 2.796 1.46 4.045.475.13-.103.4-.315.81-.626.683-.526 1.5-1.136 2.43-1.82 2.68-1.976 5.79-4.176 9.297-6.548 10.03-6.783 21.215-13.57 33.265-19.9 34.754-18.26 69.487-29.107 101.75-28.85 16.18.13 31.347 3.098 45.35 9.167 113.742 49.287 200.09 59.014 259.564 37.51 43.837-15.85 69.902-49.59 69.902-77.593 0-23.694-2.983-41.08-10.466-54.003-9.03-15.6-24.398-23.76-47.132-23.76-44.504 0-72.41 35.106-69.11 77.98 2.345 30.48 13.96 63.923 38.13 92.018 34.54 40.154 89.753 63.28 169.222 63.28 77.38 0 154.223-22.81 227.052-60.81 25.472-13.29 48.627-27.53 69.03-41.77 7.147-4.99 13.44-9.623 18.827-13.786 1.89-1.46 3.53-2.754 4.92-3.875.838-.68 1.408-1.15 1.703-1.397 1.217-1.024 1.375-2.84.352-4.058s-2.84-1.377-4.058-.354z" fill="url(#c)" filter="url(#d)" transform="translate(2)"/></g></svg>