<svg width="1440" height="480" viewBox="0 0 1440 480" xmlns="http://www.w3.org/2000/svg"><title>gc-swipes-feature</title><desc>Created with Sketch.</desc><defs><linearGradient x1="50%" y1="31.136%" x2="50%" y2="100%" id="a"><stop stop-color="#FF2C75" offset="0%"/><stop stop-color="#63368B" offset="100%"/></linearGradient></defs><g fill="none" fill-rule="evenodd"><path fill="url(#a)" d="M0 0h1440v480H0z"/><path d="M193.52 252.144h17.856c-1.584 10.08-9.936 18.72-24.048 18.72-20.88 0-30.816-15.264-30.816-33.12 0-16.992 9.792-32.976 28.8-32.976 12.24 0 20.304 7.2 21.744 15.12h24.912c-1.728-19.152-20.016-35.28-46.512-35.28-32.976 0-52.848 25.488-52.848 52.992 0 28.224 19.008 52.992 52.848 52.992 28.8 0 45.936-15.552 49.968-38.448h10.368V234.72H193.52v17.424zm97.776 37.728c24.192 0 38.592-16.704 38.592-36.576s-14.4-36.576-38.592-36.576c-23.904 0-38.448 16.704-38.448 36.576s14.544 36.576 38.448 36.576zm0-18.864c-9.936 0-16.416-7.92-16.416-17.712 0-9.648 6.48-17.712 16.416-17.712 10.08 0 16.704 8.064 16.704 17.712 0 9.792-6.624 17.712-16.704 17.712zm86.256 18.864c24.192 0 38.592-16.704 38.592-36.576s-14.4-36.576-38.592-36.576c-23.904 0-38.448 16.704-38.448 36.576s14.544 36.576 38.448 36.576zm0-18.864c-9.936 0-16.416-7.92-16.416-17.712 0-9.648 6.48-17.712 16.416-17.712 10.08 0 16.704 8.064 16.704 17.712 0 9.792-6.624 17.712-16.704 17.712zm86.688 0c-9.936 0-16.56-8.064-16.56-17.712 0-9.504 6.624-17.712 16.56-17.712s16.56 8.208 16.56 17.712c0 9.648-6.624 17.712-16.56 17.712zM480.8 288h22.032V187.2H480.8v41.328c-3.312-6.336-12.24-11.664-21.168-11.664-20.016 0-33.84 15.696-33.84 36.432 0 20.736 13.824 36.432 33.84 36.432 8.928 0 17.856-5.184 21.168-11.52V288zm90.576-69.408c-2.016-.864-3.888-1.152-6.624-1.152-9.648 0-18 5.904-21.168 12.384v-11.232h-22.032V288h22.032v-27.072c0-16.992 7.92-23.328 20.016-23.328 3.024 0 4.752.288 7.776 1.008v-20.016zm7.056-23.04c0 7.632 6.192 13.968 14.112 13.968 8.064 0 14.256-6.336 14.256-13.968 0-7.776-6.192-13.968-14.256-13.968-7.92 0-14.112 6.192-14.112 13.968zM581.6 288h22.032v-69.408H581.6V288zm109.296-42.192c-1.44-14.976-12.384-29.088-35.856-29.088-24.336 0-37.296 17.424-37.296 36.576 0 19.296 12.96 36.576 37.296 36.576 22.032 0 33.84-12.24 36-27.936h-22.032c-1.872 5.904-5.328 9.216-12.96 9.216-11.52 0-16.272-8.208-16.272-17.856 0-9.504 4.896-17.856 15.408-17.856 8.928 0 12.816 4.176 13.68 10.368h22.032zM705.152 288h21.312v-34.848c0-10.656 4.464-17.568 13.392-17.568 9.216 0 12.24 6.912 12.24 16.848V288h21.312v-41.04c0-9.936-1.296-16.848-5.616-22.176-3.744-4.896-9.936-7.92-18.864-7.92-10.656 0-18.576 4.608-22.464 11.808V187.2h-21.312V288zm117.072-33.408c0 23.04 16.416 36 38.016 36 22.176 0 37.872-11.52 37.872-32.256 0-20.16-18.864-26.784-35.424-32.544-8.496-3.024-14.4-6.624-14.4-13.248 0-6.912 5.616-10.368 12.24-10.368 8.064 0 12.528 5.616 12.528 14.544h23.328c0-17.136-11.952-32.112-35.856-32.112-18.432 0-35.424 9.792-35.424 28.368 0 20.448 15.552 26.352 34.128 33.12 8.784 3.312 15.696 6.048 15.696 14.112 0 7.056-5.76 11.808-13.248 11.808-9.504 0-16.128-6.48-16.128-17.424h-23.328zM976.016 288h17.856l25.92-69.408H997.04l-12.816 41.328-12.24-41.328H951.68l-12.24 41.328-12.816-41.328h-22.752L929.792 288h17.856l14.256-44.208L976.016 288zm49.824-92.448c0 7.632 6.192 13.968 14.112 13.968 8.064 0 14.256-6.336 14.256-13.968 0-7.776-6.192-13.968-14.256-13.968-7.92 0-14.112 6.192-14.112 13.968zm3.168 92.448h22.032v-69.408h-22.032V288zm79.488-52.416c9.792 0 16.416 8.064 16.416 17.712s-6.624 17.712-16.416 17.712c-10.08 0-16.704-8.064-16.704-17.712s6.624-17.712 16.704-17.712zm-16.704-16.992h-22.032v100.8h22.032v-41.328c3.312 6.336 12.24 11.664 21.312 11.664 20.016 0 33.84-15.696 33.84-36.432 0-20.736-13.824-36.432-33.84-36.432-9.072 0-18 5.328-21.312 11.664v-9.936zm137.088 40.032c.72-4.176.72-7.344.72-10.224 0-16.992-13.968-31.68-35.712-31.68-24.048 0-36.864 16.272-36.864 36.576 0 21.456 13.104 36.576 37.44 36.576 19.872 0 32.256-10.656 34.272-23.76h-21.6c-1.44 4.464-5.184 7.92-12.816 7.92-11.52 0-14.976-7.056-15.408-15.408h49.968zm-35.136-27.216c8.352 0 14.256 5.616 14.256 14.544h-29.088c0-9.36 6.192-14.544 14.832-14.544zm87.264 15.696c-11.664-3.888-17.712-4.752-17.712-9.792 0-4.176 3.744-6.192 8.208-6.192 6.048 0 9.072 3.312 9.072 9.072h21.744c0-13.248-9.792-23.472-29.952-23.472-18.72 0-30.672 6.768-30.672 21.168 0 13.392 9.936 16.704 21.456 20.304 13.104 4.32 18.576 5.04 18.576 10.368 0 4.608-3.744 6.48-9.072 6.48-6.48 0-11.088-2.88-11.088-10.224h-21.6c0 15.984 12.24 25.056 31.968 25.056 17.28 0 31.392-5.904 31.392-22.32 0-13.536-10.08-16.848-22.32-20.448z" fill="#fff"/></g></svg>