<svg width="1440" height="400" viewBox="0 0 1440 400" xmlns="http://www.w3.org/2000/svg"><title>Slice 1</title><g fill="none" fill-rule="evenodd"><path d="M0 0v400h1440V0H0z" fill="#9DE2CE"/><path d="M683.33 119.848l-8.273 14.222 19.102 10.945 8.27-14.223-19.1-10.944zm-14.16 23.526l-41.197 71.59 19.025 11.024 41.2-71.592-19.027-11.022zm22.52-31.405l12.702 7.34c7.067 4.082 9.413 13 5.38 20l-6.44 11.15-5.492 9.527-46.693 80.996-28.697 18.967c-6.945 4.586-11.91 1.534-11.416-6.603l2.06-34.367 46.694-80.996 5.493-9.524 6.43-11.153c4.05-6.994 12.978-9.39 19.988-5.34zm-70.287 136.99l20.257-13.59-18.802-11.03-1.455 24.62z" fill="#705B90"/><path d="M614.965 274.97c119.36 52.862 107.518-54.357 215.035-9.23" stroke="#705B90" stroke-width="11.66"/></g></svg>