<svg width="1440" height="400" viewBox="0 0 1440 400" xmlns="http://www.w3.org/2000/svg"><title>Slice 1</title><g fill="none" fill-rule="evenodd"><path d="M0 400h1440V0H0v400z" fill="#D8655D"/><path d="M644.5 255.162v-1.848h12.598v1.848h-5.277v14.763h-2.06v-14.763h-5.26zm17.824 8.317v-10.17h2.067v10.1c0 1.54.41 2.75 1.21 3.634.808.883 1.96 1.324 3.48 1.324s2.68-.44 3.496-1.32c.815-.88 1.224-2.093 1.224-3.64v-10.1h2.067v10.14c0 2.11-.58 3.764-1.74 4.97-1.16 1.202-2.84 1.804-5.04 1.804-2.18 0-3.85-.603-5.012-1.807-1.16-1.208-1.74-2.856-1.74-4.948zm21.71 4.34c-1.634-1.61-2.45-3.67-2.45-6.19 0-2.52.816-4.59 2.45-6.19 1.633-1.61 3.662-2.41 6.085-2.41 2.67 0 4.77 1.1 6.29 3.292l-1.716.973c-.478-.73-1.128-1.315-1.95-1.757-.824-.44-1.7-.663-2.63-.663-1.84 0-3.37.63-4.58 1.89-1.214 1.264-1.82 2.88-1.82 4.86 0 1.96.61 3.578 1.83 4.847 1.22 1.267 2.742 1.9 4.566 1.9.933 0 1.81-.225 2.627-.675.82-.45 1.47-1.03 1.957-1.744l1.74.95c-1.604 2.21-3.712 3.32-6.322 3.32-2.422 0-4.45-.808-6.085-2.41zm17.55 2.1v-16.61h2.066v7.14h9.704v-7.14h2.067v16.61h-2.06v-7.62h-9.7v7.62h-2.067zm20.22-6.45v-10.16h2.067v10.104c0 1.54.41 2.752 1.21 3.636.808.89 1.96 1.33 3.48 1.33s2.68-.44 3.496-1.32c.815-.88 1.224-2.09 1.224-3.64v-10.11h2.067v10.14c0 2.11-.58 3.767-1.74 4.97-1.16 1.205-2.84 1.807-5.04 1.807-2.18 0-3.852-.603-5.012-1.807-1.16-1.21-1.74-2.86-1.74-4.95zm17.568 6.445l6.7-16.61h2.565l6.676 16.61h-2.358l-1.472-3.685h-8.27l-1.47 3.686h-2.37zm4.463-5.533l3.514-8.963 3.53 8.962h-7.054zm16.134 5.532v-16.61h2.11l9.56 12.974v-12.97h2.06v16.61h-1.994l-9.68-13.256v13.255h-2.066zm21.9-2.08c-1.65-1.605-2.48-3.677-2.48-6.214 0-2.54.82-4.604 2.46-6.202 1.64-1.598 3.677-2.397 6.107-2.397 2.647 0 4.802 1.03 6.46 3.09l-1.674 1.045c-.535-.697-1.23-1.25-2.084-1.664-.855-.41-1.765-.62-2.73-.62-1.844 0-3.37.635-4.585 1.898s-1.82 2.885-1.82 4.866c0 1.964.61 3.582 1.83 4.852 1.22 1.27 2.745 1.906 4.57 1.906.917 0 1.774-.18 2.57-.536.794-.358 1.436-.777 1.922-1.258v-3.386h-5.69v-1.85h7.758v6.004c-1.705 1.916-3.884 2.874-6.53 2.874-2.416 0-4.447-.804-6.096-2.408zM696.68 145.46l57.4-8.067-.026 14.456-21.05 2.954-.1 55.07-15.307 2.15.102-55.07-21.048 2.96.03-14.456zm9.246 16.38l8.176-1.15-.21 49.2-7.82-4.513-.147-43.536zm44.843-26.358l-57.526 7.993v14.473l-8.34-4.73.027-14.44-.025-.015 57.653-8.023 8.212 4.742z" fill="#fff"/></g></svg>