<svg width="34" height="24" viewBox="0 0 34 24" xmlns="http://www.w3.org/2000/svg"><title>buffalo-red-large</title><desc>Created with Sketch.</desc><path d="M7.268 10.76l-.035-.066c-.284-.528-.383-.956-.383-2.267 0-1.792 1.14-3.31 2.4-3.31.537 0 .973-.002 1.75-.007.677-.005.872-.006 1.192-.007.725-.002 1.336.002 1.98.014 1.322.025 2.135-.315 3.193-1.123.054-.04.3-.232.37-.283.967-.73 1.704-1.02 3.178-1.02 2.138 0 3.252.86 3.857 2.46.14.37.25.768.343 1.23.052.256.186 1.028.2 1.1.05.267.1.455.173.63.18.43.494.757 1.034.757.37 0 .662-.1.95-.292.03-.02.216-.15.256-.174.198-.12.51-.195 1.178-.195 1.424 0 2.454 1.498 2.454 4.59 0 1.502-.292 2.442-.742 2.954-.14.16-.29.265-.436.33-.092.04-.17.053-.192.053-.612 0-.868.31-1.196.936-.14.265-.283.593-.466 1.055l-.117.298c-.35.89-.35.872-.45 1.096-.056.123-.1.21-.12.246.01-.014.025-.037.064-.075.136-.13.32-.23.586-.23.275 0 .466.107.603.247.04.044.06.07.07.09-.02-.034-.057-.117-.106-.24-.09-.223-.106-.265-.39-1.094l-.126-.36c-.154-.444-.28-.763-.403-1.02-.3-.626-.55-.944-1.176-.944h-3.04v5.94l.96-1h-2.105l.96 1v-1.92c0-.41-.337-1.136-.877-2.12-.82-1.496-1.105-1.914-1.83-1.914l-2.965.022-.907.006c-1.44.01-2.52.017-3.178.017-.526 0-.962-.22-1.466-.677-.13-.128-.57-.57-.64-.63-.38-.36-.67-.546-1.12-.546-.64 0-1 .365-1.3.955.008 0-.39.89-.533 1.128-.126.21-.26.382-.417.528-.19.176-.42.338-.68.485-.32.178-.67.324-1.02.437-.207.07-.364.11-.44.127l-.77.16v3.94l.96-1H4.07l.96 1v-4.66c0 .276-.105.467-.232.586-.01.01.08-.04.32-.167.392-.203.63-.34.908-.535 1.156-.816 1.84-1.995 1.84-3.684 0-1.4-.163-2.046-.596-2.845zm-2.32 4.872c-.206.145-1.227.675-1.44.875-.238.225-.4.518-.4.898v5.66H7.31v-4.12l-.77.98c.515-.107 1.243-.344 1.986-.76.39-.217.745-.466 1.053-.754.3-.28.55-.6.76-.96.21-.36.652-1.34.603-1.24-.07.04-.225.115-.4.115-.136 0-.225-.033-.28-.07.014.01.054.04.115.1.03.027.483.48.663.647.82.75 1.665 1.173 2.73 1.173.66 0 1.744-.008 3.19-.018.29 0 .59-.003.907-.005l2.95-.024c-.207 0-.35-.06-.465-.142-.025-.01.03.06.097.158.146.22.335.536.53.89.184.34.363.69.494.97.06.13.11.24.137.32-.005-.02-.005-.02-.005-.16v2.91h4.024v-5.94l-.96 1h2.087c-.19 0-.347-.06-.47-.15-.06-.04-.096-.08-.122-.112 0 0 .023.04.054.104.082.17.185.434.32.81l.12.347c.3.886.313.92.422 1.19.082.21.16.378.24.518.226.386.46.62.963.62.488 0 .717-.22.95-.59.087-.135.17-.3.26-.505.07-.156.147-.34.24-.57l.12-.305.12-.308.112-.286c.158-.4.278-.673.375-.86.04-.074.07-.12.075-.13-.103.127-.26.236-.562.236 1.75 0 3.29-1.753 3.29-5.34 0-4.08-1.725-6.59-4.373-6.59-.985 0-1.627.155-2.144.47-.11.066-.34.227-.32.213.318-.02.527.08.67.23.076.078.11.14.136.196-.003-.01-.024-.09-.05-.227-.01-.046-.144-.83-.204-1.126-.114-.564-.25-1.065-.435-1.55-.88-2.33-2.68-3.72-5.64-3.72-1.91 0-3.03.434-4.31 1.406l-.37.284c-.75.572-1.18.753-2.026.74-.66-.015-1.284-.02-2.02-.017-.325 0-.52 0-1.2.006-.774.006-1.206.01-1.74.01-2.437 0-4.32 2.504-4.32 5.31 0 1.64.18 2.405.63 3.244l.037.068c.27.5.348.81.348 1.865 0 .98-.338 1.565-.995 2.028zM3.32 7.006c-.512.818-.93 1.687-1.26 2.557-.2.524-.33.94-.396 1.19l.297-.494c-.17.15-.4.41-.62.75-.394.6-.634 1.28-.63 2.02.01 1.42.92 3.25 1.86 3.32 1.017.06 2.07-1.94 2.07-3.38 0-.75-.28-1.427-.73-2.024-.25-.338-.51-.584-.7-.736l-1.16 1.6c.07.055.21.19.35.375.206.275.32.548.32.79 0 .317-.13.738-.34 1.135-.086.163-.176.304-.25.393.12-.09.267-.17.558-.15.243.016.366.09.474.186-.07-.1-.15-.23-.23-.38-.182-.38-.3-.8-.3-1.15-.003-.283.104-.583.296-.875.122-.183.242-.316.3-.37l.22-.2.077-.293c.01-.038.033-.124.07-.25.07-.216.154-.46.255-.723.288-.754.65-1.507 1.085-2.204 1.23-1.97 2.78-3.075 4.7-3.005l.065-2C7 2.995 4.89 4.506 3.326 7.005zM29.724 8.22c-.037-.154-.034-.398.02-.66.117-.55.393-.928.61-.97l-.348-1.967c-2.265.435-3.187 4.814-.965 5.434l.5-1.932c.14.038.19.11.19.094z"/></svg>