<svg width="285" height="86" viewBox="0 0 285 86" xmlns="http://www.w3.org/2000/svg"><title>logo</title><g transform="translate(-58 -108) translate(58 106)"><path d="M7.9 17.675c-.855.668-1.727 1.3-2.617 1.893-.89.594-1.912.89-3.06.89-1.153 0-1.727-1-1.727-3.005 0-4.08 1.893-7.42 5.678-10.02C9.81 4.763 14.152 3.426 19.2 3.426c5.046 0 8.83 2.08 11.355 6.234 1.93 3.044 2.895 6.476 2.895 10.298 0 3.824-.41 7.534-1.225 11.133-.818 3.61-1.69 7.3-2.616 11.08-.93 3.79-1.8 7.63-2.62 11.53-.82 3.897-1.23 7.09-1.23 9.575 0 2.488.11 4.14.333 4.955 1.04 3.266 3.86 4.896 8.46 4.896 3.49 0 6.754-1 9.8-3.005 8.384-5.49 13.73-16.363 16.03-32.62-6.01-.37-10.63-2.28-13.86-5.732-3.23-3.45-4.844-8.106-4.844-13.97 0-4.23 1.373-7.792 4.12-10.69 2.75-2.9 6.5-4.366 11.25-4.406 4.75-.035 8.31 1.616 10.69 4.956 2.373 3.34 3.56 7.868 3.56 13.582v2.56c0 .89-.038 1.745-.11 2.56 1.26-.592 2.337-1.204 3.23-1.835.89-.63 1.78-.947 2.67-.947 1.484 0 2.227.63 2.227 1.893 0 2.45-.762 4.584-2.282 6.4-1.522 1.82-3.582 3.21-6.18 4.176-.742 9.574-1.947 16.886-3.618 21.933-1.67 5.046-3.45 9.237-5.343 12.577C60 73.9 57.57 76.83 54.602 79.354c-6.235 5.27-14.29 7.902-24.16 7.902-6.606 0-11.855-1.648-15.752-4.953-3.89-3.3-5.84-8.51-5.84-15.64 0-1.702.95-6.212 2.84-13.522s3.398-13.32 4.51-18.035c1.115-4.713 1.67-8.44 1.67-11.19 0-6.012-1.52-9.02-4.563-9.02-1.04 0-1.987.3-2.84.89-.853.598-1.71 1.227-2.56 1.896zm53.493 8.35c.148-2.077.223-4.192.223-6.346 0-4.83-1.113-7.24-3.34-7.24-1.56-.08-2.338 1.15-2.338 3.67 0 4.6 1.818 7.902 5.455 9.91zm27.665 61.23c-7.423 0-11.133-6.938-11.133-20.818 0-7.57.927-14.434 2.783-20.596 2.895-9.49 6.16-14.25 9.797-14.25 2.152 0 3.858 1.45 5.122 4.35 1.038 2.23 1.52 4.418 1.446 6.57 0 2.97-.89 8.203-2.672 15.697-1.7 6.534-2.56 10.58-2.56 12.136 0 1.56.39 2.637 1.17 3.23.78.595 1.71.89 2.79.89 1.077 0 2.43-.705 4.065-2.115 1.63-1.407 3.266-2.95 4.898-4.62 1.633-1.67 3.136-3.207 4.51-4.617 1.373-1.41 2.318-2.117 2.84-2.117 1.04 0 1.56 1.262 1.56 3.783 0 5.196-2.618 10.26-7.85 15.196-5.237 4.93-10.822 7.36-16.758 7.29zm32.22-57.868c2.67 0 5.193 2.56 7.57 7.682 3.487-3.64 7.81-5.46 12.97-5.46 5.156 0 6.376.71 8.975 2.98 2.6 2.26 5.102 6.26 5.102 10.38 0 4.12-.314 6.49-1.392 10.72-1.076 4.23-2.15 9.85-2.348 11.017-.9 5.336 2.104 5.63 2.87 5.914 7.333 2.708 27.378-11.395 28.754-12.806 1.37-1.408 7.02 4.012 1.9 8.834-8.61 5.05-24.46 18.062-38.4 17.54-3.145-.118-5.19-1.333-6.7-3.364-1.64-2.21-3.248-12.23-1.108-23.052.68-3.434 1.354-5.9 1.727-7.46.37-1.56.554-3.152.554-4.786 0-2.67-1.54-4.01-4.617-4.01-3.08 0-6.014 2.284-8.797 6.85-2.78 4.562-4.656 9.294-5.62 14.19v.78c0 2.525.39 5.12 1.17 7.793.78 2.672 1.17 4.53 1.17 5.566 0 2.524-3.156 5.013-9.464 7.46-.965.37-1.818.555-2.56.555-1.856 0-3.137-.965-3.84-2.89-.707-1.93-1.06-4.94-1.06-9.02 0-10.54.41-18.147 1.226-22.823 1.114-6.974 3.637-13.47 7.57-19.482 1.336-2.078 2.784-3.118 4.34-3.118zm72.538 45.4c5.79 0 11.392-2.3 16.812-6.903 2.003-1.707 3.634-3.283 4.897-4.73 1.262-1.447 2.227-2.172 2.895-2.172 1.038 0 1.558 1.04 1.558 3.12 0 2.075-.555 4.394-1.67 6.954-1.113 2.56-2.97 5.066-5.565 7.516-6.385 6.014-15.142 9.02-26.275 9.02-8.833 0-14.843-3.19-18.033-9.576-1.115-2.227-1.672-5.418-1.672-9.572 0-4.156.818-8.48 2.45-12.97 1.632-4.49 3.804-8.368 6.514-11.634 2.707-3.266 5.844-5.807 9.407-7.627 3.563-1.818 7.365-2.728 11.41-2.728 4.044 0 7.162 1 9.353 3.005 2.188 2.006 3.283 4.604 3.283 7.794 0 3.193-.805 5.804-2.392 7.848-3.808 4.9-17.61 15.19-23.468 17.716.45 1.25.995 2.047 3.147 3.158 2.153 1.114 4.6 1.71 7.35 1.78zm-1.894-31.394c-3.86 0-10.63 9.726-9.47 16.48.315 1.845 8.293-5.566 10.32-7.538 2.243-2.178 2.952-4.11 2.602-6.16-.198-1.162-1.152-2.782-3.452-2.782zM282.77 60.65c1.337 0 2.003 1.706 2.003 5.12 0 1.855-.777 4.102-2.338 6.734-1.557 2.635-3.582 5.047-6.066 7.236-2.49 2.19-5.26 3.99-8.3 5.4-3.05 1.41-6.018 2.113-8.91 2.113-4.08 0-6.756-3.34-8.018-10.018-4.45 7.05-11.06 10.576-19.817 10.576-5.343 0-9.61-1.63-12.8-4.89-3.19-3.27-4.75-7.24-4.676-11.91 0-12.617 4.19-22.56 12.58-29.835 5.79-4.973 11.8-7.46 18.036-7.46 2.82 0 5.046.223 6.68.668l2.563.67c3.044-14.323 6.57-23.898 10.58-28.723 1.34-1.63 2.674-2.45 4.01-2.45 2.15 0 4.155 1.486 6.01 4.454 1.63 2.45 2.45 4.564 2.45 6.346 0 1.78-.26 3.527-.78 5.233-.52 1.708-1.17 3.285-1.946 4.73-.78 1.447-1.653 2.858-2.618 4.23-.965 1.375-1.93 2.766-2.895 4.175-2.15 8.017-3.745 16.997-4.783 26.943-.3 2.82-.447 5.086-.447 6.79 0 5.124.856 7.685 2.56 7.685 1.93 0 6.608-3.86 14.03-11.58 1.336-1.483 2.298-2.226 2.89-2.226zm-52.548 6.677c0 5.717 2.115 8.572 6.347 8.572 2.52 0 5.06-.97 7.62-2.9 2.56-1.93 4.54-5.16 5.96-9.69.14-6.682.92-14.027 2.34-22.043-5.94 1.19-11.14 4.083-15.59 8.682-4.46 4.602-6.68 10.392-6.68 17.366zm0 0"/><ellipse transform="rotate(-343.537 97.125 12.376)" cx="97.125" cy="12.376" rx="7.566" ry="9.839"/></g></svg>