<?xml version="1.0" encoding="UTF-8" standalone="no"?>
<svg width="1442px" height="432px" viewBox="0 0 1442 432" version="1.1" xmlns="http://www.w3.org/2000/svg" xmlns:xlink="http://www.w3.org/1999/xlink" xmlns:sketch="http://www.bohemiancoding.com/sketch/ns">
    <!-- Generator: Sketch 3.3.2 (12043) - http://www.bohemiancoding.com/sketch -->
    <title>Plane Header</title>
    <desc>Created with Sketch.</desc>
    <defs>
        <filter x="-50%" y="-50%" width="200%" height="200%" filterUnits="objectBoundingBox" id="filter-1">
            <feGaussianBlur stdDeviation="0 0" in="SourceGraphic" result="blur"></feGaussianBlur>
        </filter>
        <path d="M994.301511,183.723674 C995.090363,183.494538 995.710167,183.580463 996.160939,183.98145 C996.611712,184.382436 996.724403,184.926624 996.499017,185.61403 C996.499017,185.843166 996.189115,187.27524 995.569303,189.910296 C994.949491,192.545352 994.188823,195.810481 993.287278,199.705781 C992.385733,203.601081 991.427855,207.811379 990.413617,212.336801 C989.399379,216.862223 988.441501,221.072521 987.539956,224.967821 C986.638411,228.863121 985.877743,232.185533 985.257931,234.935156 C984.638119,237.68478 984.271872,239.174137 984.159178,239.403272 C983.933792,240.205246 983.511199,240.749434 982.891387,241.035853 C982.271574,241.322272 981.623598,241.293631 980.94744,240.949928 C980.60936,240.720792 979.341581,240.004755 977.144065,238.801795 C974.946548,237.598835 972.551855,236.309968 969.959912,234.935156 C967.02989,233.331209 963.705492,231.498154 959.986618,229.435937 L957.451035,228.061132 L959.310462,225.827074 C965.395893,219.18215 970.861429,213.167439 975.707234,207.782759 C977.735711,205.491406 979.764157,203.257371 981.792634,201.080586 C983.821111,198.9038 985.624174,196.956179 987.201878,195.237665 C988.779582,193.51915 990.047361,192.115717 991.005253,191.027325 C991.963145,189.938932 992.498429,189.337461 992.611123,189.222893 C992.836509,188.993758 992.808336,188.735985 992.526603,188.449565 C992.24487,188.163146 991.991314,188.134505 991.765928,188.36364 C991.653235,188.478208 990.92074,189.051037 989.568423,190.082146 C988.216105,191.113255 986.441214,192.430763 984.243698,194.03471 C982.046181,195.638657 979.538796,197.471712 976.721467,199.53393 C973.904139,201.596148 971.086852,203.715617 968.269523,205.892403 C961.507934,210.933379 953.844915,216.604393 945.280235,222.905613 L935.814057,219.1249 L919.755363,212.594577 C918.966511,212.365441 918.628437,212.021744 918.74113,211.563473 C918.853823,211.105202 919.191898,210.761505 919.755363,210.532369 C919.98075,210.417802 921.95285,209.701765 925.671724,208.384237 C929.390598,207.066709 933.954603,205.434144 939.363874,203.486494 C944.773145,201.538844 950.661274,199.419374 957.028437,197.128021 C963.395601,194.836668 969.28373,192.717199 974.693001,190.769549 C980.102272,188.821899 984.666276,187.189334 988.38515,185.871806 C992.104025,184.554278 994.076125,183.838241 994.301511,183.723674 C994.301511,183.723674 994.076125,183.838241 994.301511,183.723674 Z M945.111196,228.748534 L958.634307,235.794409 C956.60583,237.742059 954.746421,239.460548 953.056024,240.949928 C951.591013,242.210172 950.210542,243.441756 948.914571,244.644716 C947.6186,245.847676 946.857932,246.563713 946.632546,246.792849 C945.618308,247.594822 945.111196,247.422973 945.111196,246.277297 C945.111196,246.277297 945.111196,247.422973 945.111196,246.277297 L945.111196,228.748534 Z" id="path-2"></path>
        <linearGradient x1="0%" y1="50%" x2="99.0513393%" y2="42.5816584%" id="linearGradient-3">
            <stop stop-color="#FFFFFF" stop-opacity="0.2" offset="0%"></stop>
            <stop stop-color="#FFFFFF" stop-opacity="0.7" offset="100%"></stop>
        </linearGradient>
        <filter x="-50%" y="-50%" width="200%" height="200%" filterUnits="objectBoundingBox" id="filter-4">
            <feGaussianBlur stdDeviation="2 0" in="SourceGraphic" result="blur"></feGaussianBlur>
        </filter>
    </defs>
    <g id="Page-1" stroke="none" stroke-width="1" fill="none" fill-rule="evenodd" sketch:type="MSPage">
        <g id="Plane-Header" sketch:type="MSLayerGroup" transform="translate(2.000000, 0.000000)">
            <rect id="Rectangle-15" fill="#CEE6F4" sketch:type="MSShapeGroup" x="0" y="0" width="1440" height="432"></rect>
            <g id="plane" filter="url(#filter-1)">
                <use fill="#FFFFFF" fill-rule="evenodd" sketch:type="MSShapeGroup" xlink:href="#path-2"></use>
                <use fill="none" xlink:href="#path-2"></use>
            </g>
            <path d="M928.387607,256.994769 C928.120591,257.219063 927.579433,257.664863 926.771013,258.317399 C925.41475,259.41214 923.804949,260.684108 921.948491,262.118533 C916.633727,266.225079 910.414691,270.804436 903.346503,275.738462 C883.137116,289.845846 860.190147,303.95672 834.94781,317.126635 C762.877221,354.728682 686.900757,377.28 610.56,377.28 C532.70436,377.28 479.101407,354.827107 445.703344,316.001857 C422.425797,288.941708 411.209184,256.648721 408.951517,227.299114 C405.896681,187.586239 431.385229,155.52 472.32,155.52 C510.703931,155.52 524.159993,178.762291 524.16,227.520001 C524.16,252.982983 499.70705,284.637535 458.058993,299.696185 C400.150519,320.634097 315.252353,311.07058 202.745109,262.31744 C188.00335,255.929345 172.073976,252.812728 155.151081,252.67719 C121.783749,252.409946 86.194904,263.523296 50.6745996,282.186796 C38.4248669,288.623196 27.05873,295.517678 16.8596496,302.414339 C13.2864795,304.830532 10.1126653,307.075798 7.37385521,309.09319 C6.41226679,309.80149 5.57288228,310.431416 4.86016584,310.975847 C4.42812468,311.305876 4.13172144,311.536146 3.97542445,311.659538 C2.72700556,312.645132 2.51394377,314.456157 3.49953764,315.704576 C4.4851315,316.952995 6.29615666,317.166057 7.54457555,316.180463 C7.67707571,316.075857 7.9492874,315.864381 8.3566996,315.553166 C9.04307208,315.028859 9.85565618,314.419046 10.7899367,313.73086 C13.467895,311.758292 16.5786982,309.557602 20.0861595,307.185842 C30.1174547,300.402638 41.3037307,293.617255 53.3537689,287.285781 C88.1080201,269.02479 122.841322,258.178601 155.10495,258.437005 C171.282999,258.566578 186.451092,261.534248 200.454891,267.602561 C314.195697,316.890245 400.54328,326.617034 460.017539,305.112982 C503.854908,289.262746 529.92,255.521261 529.92,227.52 C529.919997,203.826431 526.934572,186.440724 519.452426,173.517016 C510.42136,157.917901 495.054152,149.76 472.32,149.76 C427.814771,149.76 399.910379,184.865526 403.208483,227.740886 C405.553091,258.220715 417.168969,291.6632 441.336661,319.758143 C475.878126,359.912597 531.091371,383.04 610.56,383.04 C687.939243,383.04 764.782779,360.231317 837.61219,322.233364 C863.084853,308.943279 886.240384,294.704153 906.643497,280.461537 C913.789684,275.473063 920.083461,270.83867 925.470259,266.676466 C927.359348,265.216828 929.001148,263.919577 930.388831,262.799474 C931.226778,262.123105 931.796909,261.653436 932.092393,261.405229 C933.310308,260.382181 933.468279,258.565521 932.44523,257.347606 C931.422181,256.129691 929.605522,255.971721 928.387607,256.994769 L928.387607,256.994769 Z" id="Shape" fill="url(#linearGradient-3)" filter="url(#filter-4)" sketch:type="MSShapeGroup"></path>
        </g>
    </g>
</svg>