<?xml version="1.0" encoding="UTF-8" standalone="no"?>
<svg width="1440px" height="480px" viewBox="0 0 1440 480" version="1.1" xmlns="http://www.w3.org/2000/svg" xmlns:xlink="http://www.w3.org/1999/xlink" xmlns:sketch="http://www.bohemiancoding.com/sketch/ns">
    <!-- Generator: Sketch 3.2.2 (9983) - http://www.bohemiancoding.com/sketch -->
    <title>gc-swipes-feature</title>
    <desc>Created with Sketch.</desc>
    <defs>
        <linearGradient x1="50%" y1="31.1358385%" x2="50%" y2="100%" id="linearGradient-1">
            <stop stop-color="#FF2C75" offset="0%"></stop>
            <stop stop-color="#63368B" offset="100%"></stop>
        </linearGradient>
    </defs>
    <g id="Portfolio" stroke="none" stroke-width="1" fill="none" fill-rule="evenodd" sketch:type="MSPage">
        <g id="gc-swipes-feature" sketch:type="MSArtboardGroup">
            <rect id="Rectangle-3" fill="url(#linearGradient-1)" sketch:type="MSShapeGroup" x="0" y="0" width="1440" height="480"></rect>
            <g id="Goodrich-Swipes" sketch:type="MSLayerGroup" transform="translate(132.000000, 181.000000)" fill="#FFFFFF">
                <path d="M61.52,71.144 L79.376,71.144 C77.792,81.224 69.44,89.864 55.328,89.864 C34.448,89.864 24.512,74.6 24.512,56.744 C24.512,39.752 34.304,23.768 53.312,23.768 C65.552,23.768 73.616,30.968 75.056,38.888 L99.968,38.888 C98.24,19.736 79.952,3.608 53.456,3.608 C20.48,3.608 0.608,29.096 0.608,56.6 C0.608,84.824 19.616,109.592 53.456,109.592 C82.256,109.592 99.392,94.04 103.424,71.144 L113.792,71.144 L113.792,53.72 L61.52,53.72 L61.52,71.144 Z M159.296,108.872 C183.488,108.872 197.888,92.168 197.888,72.296 C197.888,52.424 183.488,35.72 159.296,35.72 C135.392,35.72 120.848,52.424 120.848,72.296 C120.848,92.168 135.392,108.872 159.296,108.872 L159.296,108.872 Z M159.296,90.008 C149.36,90.008 142.88,82.088 142.88,72.296 C142.88,62.648 149.36,54.584 159.296,54.584 C169.376,54.584 176,62.648 176,72.296 C176,82.088 169.376,90.008 159.296,90.008 L159.296,90.008 Z M245.552,108.872 C269.744,108.872 284.144,92.168 284.144,72.296 C284.144,52.424 269.744,35.72 245.552,35.72 C221.648,35.72 207.104,52.424 207.104,72.296 C207.104,92.168 221.648,108.872 245.552,108.872 L245.552,108.872 Z M245.552,90.008 C235.616,90.008 229.136,82.088 229.136,72.296 C229.136,62.648 235.616,54.584 245.552,54.584 C255.632,54.584 262.256,62.648 262.256,72.296 C262.256,82.088 255.632,90.008 245.552,90.008 L245.552,90.008 Z M332.24,90.008 C322.304,90.008 315.68,81.944 315.68,72.296 C315.68,62.792 322.304,54.584 332.24,54.584 C342.176,54.584 348.8,62.792 348.8,72.296 C348.8,81.944 342.176,90.008 332.24,90.008 L332.24,90.008 Z M348.8,107 L370.832,107 L370.832,6.2 L348.8,6.2 L348.8,47.528 C345.488,41.192 336.56,35.864 327.632,35.864 C307.616,35.864 293.792,51.56 293.792,72.296 C293.792,93.032 307.616,108.728 327.632,108.728 C336.56,108.728 345.488,103.544 348.8,97.208 L348.8,107 Z M439.376,37.592 C437.36,36.728 435.488,36.44 432.752,36.44 C423.104,36.44 414.752,42.344 411.584,48.824 L411.584,37.592 L389.552,37.592 L389.552,107 L411.584,107 L411.584,79.928 C411.584,62.936 419.504,56.6 431.6,56.6 C434.624,56.6 436.352,56.888 439.376,57.608 L439.376,37.592 Z M446.432,14.552 C446.432,22.184 452.624,28.52 460.544,28.52 C468.608,28.52 474.8,22.184 474.8,14.552 C474.8,6.776 468.608,0.584 460.544,0.584 C452.624,0.584 446.432,6.776 446.432,14.552 L446.432,14.552 Z M449.6,107 L471.632,107 L471.632,37.592 L449.6,37.592 L449.6,107 Z M558.896,64.808 C557.456,49.832 546.512,35.72 523.04,35.72 C498.704,35.72 485.744,53.144 485.744,72.296 C485.744,91.592 498.704,108.872 523.04,108.872 C545.072,108.872 556.88,96.632 559.04,80.936 L537.008,80.936 C535.136,86.84 531.68,90.152 524.048,90.152 C512.528,90.152 507.776,81.944 507.776,72.296 C507.776,62.792 512.672,54.44 523.184,54.44 C532.112,54.44 536,58.616 536.864,64.808 L558.896,64.808 Z M573.152,107 L594.464,107 L594.464,72.152 C594.464,61.496 598.928,54.584 607.856,54.584 C617.072,54.584 620.096,61.496 620.096,71.432 L620.096,107 L641.408,107 L641.408,65.96 C641.408,56.024 640.112,49.112 635.792,43.784 C632.048,38.888 625.856,35.864 616.928,35.864 C606.272,35.864 598.352,40.472 594.464,47.672 L594.464,6.2 L573.152,6.2 L573.152,107 Z M690.224,73.592 C690.224,96.632 706.64,109.592 728.24,109.592 C750.416,109.592 766.112,98.072 766.112,77.336 C766.112,57.176 747.248,50.552 730.688,44.792 C722.192,41.768 716.288,38.168 716.288,31.544 C716.288,24.632 721.904,21.176 728.528,21.176 C736.592,21.176 741.056,26.792 741.056,35.72 L764.384,35.72 C764.384,18.584 752.432,3.608 728.528,3.608 C710.096,3.608 693.104,13.4 693.104,31.976 C693.104,52.424 708.656,58.328 727.232,65.096 C736.016,68.408 742.928,71.144 742.928,79.208 C742.928,86.264 737.168,91.016 729.68,91.016 C720.176,91.016 713.552,84.536 713.552,73.592 L690.224,73.592 Z M844.016,107 L861.872,107 L887.792,37.592 L865.04,37.592 L852.224,78.92 L839.984,37.592 L819.68,37.592 L807.44,78.92 L794.624,37.592 L771.872,37.592 L797.792,107 L815.648,107 L829.904,62.792 L844.016,107 Z M893.84,14.552 C893.84,22.184 900.032,28.52 907.952,28.52 C916.016,28.52 922.208,22.184 922.208,14.552 C922.208,6.776 916.016,0.584 907.952,0.584 C900.032,0.584 893.84,6.776 893.84,14.552 L893.84,14.552 Z M897.008,107 L919.04,107 L919.04,37.592 L897.008,37.592 L897.008,107 Z M976.496,54.584 C986.288,54.584 992.912,62.648 992.912,72.296 C992.912,81.944 986.288,90.008 976.496,90.008 C966.416,90.008 959.792,81.944 959.792,72.296 C959.792,62.648 966.416,54.584 976.496,54.584 L976.496,54.584 Z M959.792,37.592 L937.76,37.592 L937.76,138.392 L959.792,138.392 L959.792,97.064 C963.104,103.4 972.032,108.728 981.104,108.728 C1001.12,108.728 1014.944,93.032 1014.944,72.296 C1014.944,51.56 1001.12,35.864 981.104,35.864 C972.032,35.864 963.104,41.192 959.792,47.528 L959.792,37.592 Z M1096.88,77.624 C1097.6,73.448 1097.6,70.28 1097.6,67.4 C1097.6,50.408 1083.632,35.72 1061.888,35.72 C1037.84,35.72 1025.024,51.992 1025.024,72.296 C1025.024,93.752 1038.128,108.872 1062.464,108.872 C1082.336,108.872 1094.72,98.216 1096.736,85.112 L1075.136,85.112 C1073.696,89.576 1069.952,93.032 1062.32,93.032 C1050.8,93.032 1047.344,85.976 1046.912,77.624 L1096.88,77.624 Z M1061.744,50.408 C1070.096,50.408 1076,56.024 1076,64.952 L1046.912,64.952 C1046.912,55.592 1053.104,50.408 1061.744,50.408 L1061.744,50.408 Z M1149.008,66.104 C1137.344,62.216 1131.296,61.352 1131.296,56.312 C1131.296,52.136 1135.04,50.12 1139.504,50.12 C1145.552,50.12 1148.576,53.432 1148.576,59.192 L1170.32,59.192 C1170.32,45.944 1160.528,35.72 1140.368,35.72 C1121.648,35.72 1109.696,42.488 1109.696,56.888 C1109.696,70.28 1119.632,73.592 1131.152,77.192 C1144.256,81.512 1149.728,82.232 1149.728,87.56 C1149.728,92.168 1145.984,94.04 1140.656,94.04 C1134.176,94.04 1129.568,91.16 1129.568,83.816 L1107.968,83.816 C1107.968,99.8 1120.208,108.872 1139.936,108.872 C1157.216,108.872 1171.328,102.968 1171.328,86.552 C1171.328,73.016 1161.248,69.704 1149.008,66.104 L1149.008,66.104 Z" sketch:type="MSShapeGroup"></path>
            </g>
        </g>
    </g>
</svg>