<svg width="400" height="300" viewBox="0 0 400 300" xmlns="http://www.w3.org/2000/svg" xmlns:xlink="http://www.w3.org/1999/xlink"><title>Slice 1</title><defs><path d="M121.25 91.5v284h160v-284h-160zm0 0" id="a" fill-rule="evenodd"/><mask id="b"><use xlink:href="#a" fill="#fff"/></mask></defs><g fill="#D8D8D8" fill-rule="evenodd"><path d="M-42.5-57v500h500V-57h-500zm0 0" stroke="#848484" fill="#BC5B4C"/><g fill="#E0E0E0"><path d="M106.508 159.75c-.557 0-1.008.45-1.008 1.007v11.986c0 .556.454 1.007 1.008 1.007h5.234c.557 0 1.008-.45 1.008-1.007v-11.986c0-.556-.454-1.007-1.008-1.007h-5.234zm0-32.75c-.557 0-1.008.45-1.008 1.007v11.986c0 .556.454 1.007 1.008 1.007h5.234c.557 0 1.008-.45 1.008-1.007v-11.986c0-.556-.454-1.007-1.008-1.007h-5.234zm0-37.25c-.557 0-1.008.45-1.008.99v15.52c0 .546.454.99 1.008.99h5.234c.557 0 1.008-.45 1.008-.99V90.74c0-.546-.454-.99-1.008-.99h-5.234zM233.506 33c-.556 0-1.006.444-1.006 1v3c0 .552.447 1 1.006 1h28.738c.556 0 1.006-.444 1.006-1v-3c0-.552-.447-1-1.006-1h-28.738zm0 0" fill="#D9D8D0"/><path d="M135.494 35.25C120.31 35.25 108 47.56 108 62.75v340c0 15.187 12.31 27.5 27.494 27.5h131.512c15.185 0 27.494-12.31 27.494-27.5v-340c0-15.187-12.31-27.5-27.494-27.5H135.494zm0 0" fill="#E9EAE4"/><path d="M121.26 90c-.834 0-1.51.678-1.51 1.51v283.98c0 .834.674 1.51 1.51 1.51h159.98c.834 0 1.51-.678 1.51-1.51V91.51c0-.834-.674-1.51-1.51-1.51H121.26zm0 0" fill-opacity=".609" fill="#ABA99F"/><use xlink:href="#a" fill="#C5C3BA"/><g fill="#D8D8D8" mask="url(#b)"><path d="M121.5 90v300h175V90h-175zm0 0" fill="#BC5B4C"/><path d="M200.9 267.91c.193.195.51.193.7 0l18.028-18.12 1.836-1.847c.254-.255.666-.258.918-.004l3.68 3.69c.25.25.25.666-.003.922l-1.84 1.846-22.62 22.74c-.2.195-.51.193-.71 0l-22.62-22.74-1.837-1.846c-.254-.253-.257-.667-.004-.92l3.68-3.7c.25-.25.663-.25.92.004l1.835 1.845 18.03 18.12zm0 0" opacity=".65" fill="#FFFEF6"/><path d="M150.122 179.184c0-.56.448-1.064 1.064-1.064h12.768c6.888 0 12.544 5.6 12.544 12.376 0 6.944-5.656 12.6-12.488 12.6h-8.12v13.16c0 .56-.504 1.064-1.064 1.064h-3.64c-.616 0-1.064-.504-1.064-1.064zm5.768 18.424h7.728c3.864 0 7.112-3.136 7.112-7.168 0-3.808-3.248-6.72-7.112-6.72h-7.728zm22.792 8.512c0-6.328 4.48-11.76 11.2-11.76 5.824 0 10.304 4.368 10.304 10.36 0 .392-.056 1.12-.112 1.512-.056.56-.504.952-1.008.952h-15.232c.168 3.024 2.8 5.992 6.44 5.992 2.016 0 3.864-.896 4.984-1.624.672-.392 1.064-.616 1.512-.056l1.568 2.128c.392.448.56.896-.112 1.456-1.624 1.4-4.536 2.8-8.288 2.8-6.776 0-11.256-5.32-11.256-11.76zm5.432-2.464h10.864c-.168-2.688-2.408-4.984-5.152-4.984-3.024 0-5.376 2.184-5.712 4.984zm19.768 2.52c0-6.608 5.544-11.816 11.76-11.816 3.416 0 6.048 1.4 8.12 3.976.392.504.28 1.176-.224 1.568l-1.848 1.68c-.672.616-1.064.168-1.512-.224-1.008-1.12-2.632-2.128-4.48-2.128-3.64 0-6.496 3.08-6.496 6.888 0 3.864 2.8 6.944 6.44 6.944 2.856 0 4.032-1.456 5.208-2.576.504-.504 1.008-.504 1.512-.112l1.512 1.232c.56.448.784 1.008.392 1.568-1.792 2.856-4.816 4.704-8.68 4.704-6.272 0-11.704-4.984-11.704-11.704zm25.984 10.08v-37.072c0-.56.504-1.064 1.064-1.064h3.248c.56 0 1.064.504 1.064 1.064v24.248l8.736-7.84c.392-.336.84-.672 1.4-.672h3.92c.952 0 1.12 1.064.616 1.512l-9.296 8.456 10.976 10.976c.504.504.336 1.456-.616 1.456h-4.592c-.392 0-.84-.224-1.008-.448l-10.136-10.416v9.8c0 .56-.504 1.064-1.064 1.064h-3.248c-.56 0-1.064-.504-1.064-1.064zm0 0" fill="#EBCDC2"/></g><path d="M201.25 58.25c2.07 0 3.75-1.68 3.75-3.75 0-2.07-1.68-3.75-3.75-3.75-2.07 0-3.75 1.68-3.75 3.75 0 2.07 1.68 3.75 3.75 3.75zm0 0" fill="#C5C3BA" mask="url(#b)"/><path d="M201.25 56c.828 0 1.5-.672 1.5-1.5s-.672-1.5-1.5-1.5-1.5.672-1.5 1.5.672 1.5 1.5 1.5zm0 0" fill-opacity=".609" fill="#ABA99F" mask="url(#b)"/><path d="M188.255 65.75c-2.35 0-4.255 1.908-4.255 4.25 0 2.347 1.9 4.25 4.255 4.25h25.49c2.35 0 4.255-1.908 4.255-4.25 0-2.347-1.9-4.25-4.255-4.25h-25.49zm0 0" fill="#DDD5D5" mask="url(#b)"/><path d="M188.246 67.5c-1.38 0-2.496 1.11-2.496 2.5 0 1.38 1.122 2.5 2.496 2.5h25.508c1.38 0 2.496-1.11 2.496-2.5 0-1.38-1.122-2.5-2.496-2.5h-25.508zm0 0" fill-opacity=".609" fill="#ABA99F" mask="url(#b)"/></g></g></svg>